<svg version="1.1" id="Layer_1" xmlns="http://www.w3.org/2000/svg" xmlns:xlink="http://www.w3.org/1999/xlink" x="0px"
  y="0px" width="100%" viewBox="0 0 151 148" enable-background="new 0 0 151 148" xml:space="preserve">
  <path fill="#F9F9F9" opacity="1.000000" stroke="none" d="
M87.000000,1.000000 
	C108.634712,1.000000 130.269424,1.000000 151.952057,1.000000 
	C151.952057,50.228573 151.952057,99.457207 151.952057,149.000000 
	C124.313232,149.000000 96.625275,149.000000 68.586708,148.679810 
	C72.159760,144.583466 76.112823,140.837234 79.998444,137.022308 
	C83.574188,133.511642 87.077400,129.927109 90.612564,126.375114 
	C91.058289,126.618362 91.504005,126.861610 91.949730,127.104866 
	C91.949730,130.357849 91.949730,133.610840 91.949730,136.863815 
	C93.447495,133.795670 93.652206,130.679108 94.287224,127.652847 
	C94.624275,126.046593 95.315170,123.837318 96.524551,123.212044 
	C101.057495,120.868477 105.791832,118.830406 110.631607,117.222359 
	C111.870384,116.810768 114.444351,117.948502 115.251862,119.149628 
	C118.226860,123.574715 122.017525,125.282120 127.191719,124.204170 
	C132.339920,123.131622 136.037949,120.587006 137.039810,114.618980 
	C137.412109,110.941658 138.109665,107.596405 137.753540,104.367371 
	C135.532730,84.231758 132.939087,64.136696 130.801651,43.992893 
	C130.314377,39.400612 129.247147,34.892643 130.474167,29.897247 
	C131.194534,26.964531 127.892281,23.043741 126.399414,19.567390 
	C125.221428,21.541868 124.709084,23.578436 124.945282,25.524136 
	C127.386086,45.630676 130.072144,65.708015 132.421890,85.824791 
	C133.552780,95.506683 134.112839,105.255264 134.545410,115.016632 
	C128.536575,117.078056 122.917976,118.886436 116.934532,114.975052 
	C118.386749,113.184006 119.619347,111.847305 120.643829,110.366615 
	C123.987854,105.533440 125.222351,100.240135 122.392540,94.890060 
	C121.307610,92.838867 118.783783,90.295479 116.891953,90.276001 
	C114.991089,90.256424 112.143219,92.744629 111.361252,94.770943 
	C110.226044,97.712654 110.369568,101.225708 110.360893,104.496155 
	C110.355362,106.582115 111.060448,108.669975 111.486511,110.970741 
	C105.855637,112.912582 100.475449,114.767975 94.814331,116.720253 
	C94.814331,108.348030 94.814331,100.221703 94.814331,92.112740 
	C105.951782,88.016510 108.174744,84.438202 106.788734,72.567490 
	C106.094460,66.621223 105.214676,60.696831 104.449074,54.758640 
	C103.003044,43.542858 101.416420,32.340843 100.268227,21.094311 
	C100.005257,18.518557 102.215637,15.558466 101.635818,13.177549 
	C100.749054,9.536282 98.426659,6.244635 96.713692,2.804574 
	C95.379654,5.000256 94.805054,6.972211 95.053505,8.834352 
	C96.813133,22.022463 98.818871,35.177662 100.591148,48.364185 
	C101.964714,58.584248 103.165924,68.828560 104.331062,79.074898 
	C104.686203,82.198013 100.872581,85.317192 96.576660,85.689514 
	C92.510193,86.041962 93.238594,82.895615 92.930153,80.594673 
	C92.289345,75.814430 91.502098,71.037292 91.197418,66.232094 
	C90.631699,57.310089 87.742088,48.649426 89.350288,39.393276 
	C89.891129,36.280388 86.518211,32.487511 84.934090,29.005424 
	C84.330589,29.139664 83.727089,29.273901 83.123581,29.408140 
	C85.192207,47.546516 87.260834,65.684891 89.329453,83.823273 
	C88.885239,84.087929 88.441017,84.352585 87.996796,84.617241 
	C77.895844,76.087608 67.794891,67.557968 57.344215,58.733017 
	C65.260406,55.611958 71.329956,58.461506 77.225159,62.185173 
	C78.365875,58.257030 77.599457,55.755299 74.539673,53.522686 
	C67.836052,48.631294 64.606522,41.146122 65.341721,33.513748 
	C65.806854,28.685043 63.964146,25.932434 61.931610,21.203176 
	C57.958763,32.539150 64.110199,41.627640 64.922668,50.435631 
	C54.102562,55.915016 45.167358,52.922626 37.053833,45.332588 
	C34.649277,43.083172 31.628527,41.495491 28.905413,39.582832 
	C24.930506,36.790936 20.969402,33.979385 15.537896,30.141348 
	C29.131920,24.721916 41.143135,19.545931 53.436581,15.161254 
	C62.465931,11.940776 71.831902,9.631932 81.115623,7.172642 
	C84.827553,6.189338 87.313034,7.572143 86.533821,12.449399 
	C90.493652,7.590677 90.514862,4.951842 87.000000,1.000000 
M119.660690,80.064117 
	C121.156960,81.233414 122.653236,82.402718 124.383911,83.755203 
	C125.564880,81.994774 126.365936,80.800659 127.025620,79.817291 
	C125.415237,77.825455 123.989067,76.061462 122.307503,73.981583 
	C120.831802,75.832779 119.930649,76.963219 118.311096,78.017807 
	C116.741196,76.897255 115.171288,75.776695 113.617683,74.667778 
	C109.756294,79.217209 109.968315,79.906776 115.812225,82.802803 
	C116.898834,81.772499 117.952217,80.773705 119.660690,80.064117 
M145.451721,100.595787 
	C145.706619,101.296295 145.961502,101.996811 146.216400,102.697327 
	C146.730148,102.666809 147.243896,102.636284 147.757645,102.605766 
	C147.757645,96.551445 148.251358,90.447678 147.651169,84.453445 
	C146.526398,73.220451 144.645782,62.064751 143.374710,50.843464 
	C143.113831,48.540321 144.973404,45.863220 144.394684,43.760593 
	C143.482010,40.444645 141.332153,37.469223 139.706009,34.349655 
	C139.229401,34.477676 138.752792,34.605701 138.276199,34.733723 
	C140.657135,56.410412 143.038071,78.087097 145.451721,100.595787 
M118.539452,47.935287 
	C117.706276,41.507702 116.693481,35.096260 116.113815,28.645895 
	C115.812843,25.296659 116.930466,21.735302 116.226585,18.528944 
	C115.399002,14.759006 113.291046,11.270138 111.588127,7.310074 
	C109.607826,11.424814 114.916527,59.157040 118.548370,72.573059 
	C121.548790,64.596237 119.350128,56.700424 118.539452,47.935287 
M106.388649,137.010941 
	C106.728912,137.925430 107.069168,138.839920 107.409431,139.754410 
	C108.880257,135.035141 105.293304,130.434860 99.568504,128.669678 
	C101.107910,130.999664 101.831528,132.352890 102.804688,133.493149 
	C103.723862,134.570145 104.905380,135.423248 106.388649,137.010941 
z" />
  <path fill="#0D0D0D" opacity="1.000000" stroke="none" d="
M86.562500,1.000000 
	C90.514862,4.951842 90.493652,7.590677 86.533821,12.449399 
	C87.313034,7.572143 84.827553,6.189338 81.115623,7.172642 
	C71.831902,9.631932 62.465931,11.940776 53.436581,15.161254 
	C41.143135,19.545931 29.131920,24.721916 15.537896,30.141348 
	C20.969402,33.979385 24.930506,36.790936 28.905413,39.582832 
	C31.628527,41.495491 34.649277,43.083172 37.053833,45.332588 
	C45.167358,52.922626 54.102562,55.915016 64.922668,50.435631 
	C64.110199,41.627640 57.958763,32.539150 61.931610,21.203176 
	C63.964146,25.932434 65.806854,28.685043 65.341721,33.513748 
	C64.606522,41.146122 67.836052,48.631294 74.539673,53.522686 
	C77.599457,55.755299 78.365875,58.257030 77.225159,62.185173 
	C71.329956,58.461506 65.260406,55.611958 57.344215,58.733017 
	C67.794891,67.557968 77.895844,76.087608 87.996796,84.617241 
	C88.441017,84.352585 88.885239,84.087929 89.329453,83.823273 
	C87.260834,65.684891 85.192207,47.546516 83.123581,29.408140 
	C83.727089,29.273901 84.330589,29.139664 84.934090,29.005424 
	C86.518211,32.487511 89.891129,36.280388 89.350288,39.393276 
	C87.742088,48.649426 90.631699,57.310089 91.197418,66.232094 
	C91.502098,71.037292 92.289345,75.814430 92.930153,80.594673 
	C93.238594,82.895615 92.510193,86.041962 96.576660,85.689514 
	C100.872581,85.317192 104.686203,82.198013 104.331062,79.074898 
	C103.165924,68.828560 101.964714,58.584248 100.591148,48.364185 
	C98.818871,35.177662 96.813133,22.022463 95.053505,8.834352 
	C94.805054,6.972211 95.379654,5.000256 96.713692,2.804574 
	C98.426659,6.244635 100.749054,9.536282 101.635818,13.177549 
	C102.215637,15.558466 100.005257,18.518557 100.268227,21.094311 
	C101.416420,32.340843 103.003044,43.542858 104.449074,54.758640 
	C105.214676,60.696831 106.094460,66.621223 106.788734,72.567490 
	C108.174744,84.438202 105.951782,88.016510 94.814331,92.112740 
	C94.814331,100.221703 94.814331,108.348030 94.814331,116.720253 
	C100.475449,114.767975 105.855637,112.912582 111.486511,110.970741 
	C111.060448,108.669975 110.355362,106.582115 110.360893,104.496155 
	C110.369568,101.225708 110.226044,97.712654 111.361252,94.770943 
	C112.143219,92.744629 114.991089,90.256424 116.891953,90.276001 
	C118.783783,90.295479 121.307610,92.838867 122.392540,94.890060 
	C125.222351,100.240135 123.987854,105.533440 120.643829,110.366615 
	C119.619347,111.847305 118.386749,113.184006 116.934532,114.975052 
	C122.917976,118.886436 128.536575,117.078056 134.869537,115.034447 
	C136.012390,115.007782 136.445160,115.006279 136.877945,115.004776 
	C136.037949,120.587006 132.339920,123.131622 127.191719,124.204170 
	C122.017525,125.282120 118.226860,123.574715 115.251862,119.149628 
	C114.444351,117.948502 111.870384,116.810768 110.631607,117.222359 
	C105.791832,118.830406 101.057495,120.868477 96.524551,123.212044 
	C95.315170,123.837318 94.624275,126.046593 94.287224,127.652847 
	C93.652206,130.679108 93.447495,133.795670 91.949730,136.863815 
	C91.949730,133.610840 91.949730,130.357849 91.949730,127.104866 
	C91.504005,126.861610 91.058289,126.618362 90.612564,126.375114 
	C87.077400,129.927109 83.574188,133.511642 79.998444,137.022308 
	C76.112823,140.837234 72.159760,144.583466 68.118050,148.679810 
	C66.611115,149.000000 65.222221,149.000000 63.266190,148.691742 
	C56.488091,146.190994 55.195282,140.624039 54.335400,136.766754 
	C46.419228,135.358047 38.844734,135.394058 32.592960,132.536346 
	C25.292820,129.199432 25.995008,120.497543 25.088312,113.163994 
	C16.694885,119.127785 13.677459,118.880486 8.933487,112.062935 
	C9.363679,111.538689 9.657818,111.280991 10.243049,111.264534 
	C12.767488,111.798958 15.250860,112.834816 17.168213,112.189346 
	C19.355902,111.452858 21.364771,109.480095 22.884472,107.589035 
	C28.828465,100.192627 36.514179,95.555740 45.399784,92.692459 
	C50.124069,91.170097 54.924656,89.874741 59.611412,88.248177 
	C65.593956,86.171890 66.547783,84.182693 62.748455,79.312088 
	C58.703999,74.127220 53.840298,69.550781 49.050171,65.008308 
	C48.250259,64.249748 45.512627,64.386169 44.501873,65.174767 
	C33.581184,73.695183 22.827011,82.429016 11.670307,91.146935 
	C10.811611,90.789658 10.309950,90.389992 9.856905,89.729950 
	C9.605835,89.339630 9.306147,89.209694 8.763285,88.841026 
	C6.013408,86.068199 3.506704,83.534096 1.000000,81.000000 
	C1.000000,77.969406 1.000000,74.938812 1.357268,71.429703 
	C2.231641,72.115791 3.186857,73.276955 3.196005,74.445534 
	C3.264430,83.186020 8.129443,86.369987 15.335542,81.348938 
	C24.786991,74.763359 33.548130,67.187065 43.150013,59.607571 
	C34.095829,52.692261 26.057117,46.550835 18.016478,40.411938 
	C12.688787,36.344330 13.118431,27.733040 19.290745,24.968632 
	C33.349628,18.672049 47.581390,12.747674 61.862911,6.968634 
	C67.749756,4.586515 73.945015,2.966597 80.000000,1.000001 
	C82.041664,1.000000 84.083336,1.000000 86.562500,1.000000 
M84.230431,106.367813 
	C86.086456,112.570114 83.293251,117.327248 78.715370,120.734360 
	C71.849007,125.844688 64.490402,130.293625 56.265457,135.735519 
	C57.503437,137.808899 58.587738,141.946594 61.026070,143.026245 
	C63.262886,144.016632 67.111160,142.039185 69.960083,140.736557 
	C71.821892,139.885284 73.317047,138.033096 74.711662,136.402725 
	C77.194351,133.500320 78.888550,129.459351 81.948692,127.599014 
	C92.580208,121.135880 92.600815,111.415306 91.758690,100.904770 
	C91.334084,95.605347 91.293549,90.955879 84.989120,88.693451 
	C81.913254,87.589622 79.561363,84.413132 76.940964,82.107552 
	C72.323959,78.045235 67.779739,73.899719 63.132092,69.873245 
	C62.437725,69.271683 61.347054,69.127579 59.959167,68.583443 
	C61.874741,71.384300 63.610592,73.428612 64.801636,75.752190 
	C69.173782,84.281746 67.129036,90.347221 58.494385,94.484314 
	C55.662514,95.841133 52.534016,96.572403 49.679008,97.888710 
	C43.395336,100.785820 37.094635,103.678497 31.005720,106.953789 
	C27.134674,109.036049 26.605097,112.761818 27.347822,116.918373 
	C28.415945,122.895988 32.107422,126.264915 37.645153,127.826706 
	C43.753464,129.549423 49.691406,129.217270 55.145454,125.574692 
	C55.749065,125.171570 56.259323,124.162621 56.786922,124.180969 
	C66.171524,124.507393 73.109688,119.132973 80.025940,113.994316 
	C81.208862,113.115433 81.879936,110.115723 81.341034,108.615242 
	C79.606873,103.786713 76.975410,99.285385 75.144058,94.484650 
	C74.295967,92.261490 74.498520,89.637535 74.224762,87.195282 
	C74.741257,87.028091 75.257751,86.860909 75.774246,86.693718 
	C77.915970,89.097771 80.057693,91.501823 82.534515,94.282013 
	C81.069855,94.756645 80.193626,95.040596 79.549095,95.249458 
	C81.054260,98.687035 82.564903,102.137115 84.230431,106.367813 
M113.957001,107.374763 
	C117.552223,111.174568 119.071564,106.688210 120.634071,105.165482 
	C121.456100,104.364372 120.876602,100.852257 119.759850,99.663734 
	C118.428627,98.246964 115.843552,98.008324 113.801682,97.259285 
	C113.280418,98.997429 112.433739,100.718605 112.341919,102.479141 
	C112.269821,103.861557 113.130608,105.292618 113.957001,107.374763 
z" />
  <path fill="#FBFBFB" opacity="1.000000" stroke="none" d="
M79.531342,1.000001 
	C73.945015,2.966597 67.749756,4.586515 61.862911,6.968634 
	C47.581390,12.747674 33.349628,18.672049 19.290745,24.968632 
	C13.118431,27.733040 12.688787,36.344330 18.016478,40.411938 
	C26.057117,46.550835 34.095829,52.692261 43.150013,59.607571 
	C33.548130,67.187065 24.786991,74.763359 15.335542,81.348938 
	C8.129443,86.369987 3.264430,83.186020 3.196005,74.445534 
	C3.186857,73.276955 2.231641,72.115791 1.357268,70.975601 
	C1.000000,47.735382 1.000000,24.470762 1.000000,1.000000 
	C27.020531,1.000000 53.041607,1.000000 79.531342,1.000001 
M9.199550,60.163502 
	C10.903269,58.559250 12.606987,56.954998 15.361487,54.361313 
	C8.270734,55.437405 9.253837,51.166954 8.832120,47.889389 
	C5.482436,51.980015 5.395195,56.075855 9.199550,60.163502 
M14.525859,52.506664 
	C14.525859,52.506664 14.487129,52.506813 14.525859,52.506664 
z" />
  <path fill="#FCFCFC" opacity="1.000000" stroke="none" d="
M8.797433,112.329475 
	C13.677459,118.880486 16.694885,119.127785 25.088312,113.163994 
	C25.995008,120.497543 25.292820,129.199432 32.592960,132.536346 
	C38.844734,135.394058 46.419228,135.358047 54.335400,136.766754 
	C55.195282,140.624039 56.488091,146.190994 62.849525,148.691742 
	C42.403118,149.000000 21.806238,149.000000 1.000000,149.000000 
	C1.000000,126.646210 1.000000,104.291763 1.000000,81.468658 
	C3.506704,83.534096 6.013408,86.068199 8.850240,89.030083 
	C9.337656,89.696693 9.546963,89.874184 9.808287,89.990334 
	C10.309950,90.389992 10.811611,90.789658 11.616140,91.458649 
	C11.528852,92.193092 11.138695,92.658203 10.732819,93.329178 
	C10.570571,93.796829 10.347786,93.937263 10.015045,93.985283 
	C9.981346,94.014214 9.938321,94.091934 9.704780,94.353752 
	C5.428596,99.814003 5.157412,106.943253 8.797433,112.329475 
z" />
  <path fill="#151515" opacity="1.000000" stroke="none" d="
M137.039810,114.618980 
	C136.445160,115.006279 136.012390,115.007782 135.255493,114.991455 
	C134.112839,105.255264 133.552780,95.506683 132.421890,85.824791 
	C130.072144,65.708015 127.386086,45.630676 124.945282,25.524136 
	C124.709084,23.578436 125.221428,21.541868 126.399414,19.567390 
	C127.892281,23.043741 131.194534,26.964531 130.474167,29.897247 
	C129.247147,34.892643 130.314377,39.400612 130.801651,43.992893 
	C132.939087,64.136696 135.532730,84.231758 137.753540,104.367371 
	C138.109665,107.596405 137.412109,110.941658 137.039810,114.618980 
z" />
  <path fill="#151515" opacity="1.000000" stroke="none" d="
M145.435364,100.179787 
	C143.038071,78.087097 140.657135,56.410412 138.276199,34.733723 
	C138.752792,34.605701 139.229401,34.477676 139.706009,34.349655 
	C141.332153,37.469223 143.482010,40.444645 144.394684,43.760593 
	C144.973404,45.863220 143.113831,48.540321 143.374710,50.843464 
	C144.645782,62.064751 146.526398,73.220451 147.651169,84.453445 
	C148.251358,90.447678 147.757645,96.551445 147.757645,102.605766 
	C147.243896,102.636284 146.730148,102.666809 146.216400,102.697327 
	C145.961502,101.996811 145.706619,101.296295 145.435364,100.179787 
z" />
  <path fill="#121212" opacity="1.000000" stroke="none" d="
M118.618004,48.375862 
	C119.350128,56.700424 121.548790,64.596237 118.548370,72.573059 
	C114.916527,59.157040 109.607826,11.424814 111.588127,7.310074 
	C113.291046,11.270138 115.399002,14.759006 116.226585,18.528944 
	C116.930466,21.735302 115.812843,25.296659 116.113815,28.645895 
	C116.693481,35.096260 117.706276,41.507702 118.618004,48.375862 
z" />
  <path fill="#0B0B0B" opacity="1.000000" stroke="none" d="
M119.029495,78.093666 
	C119.930649,76.963219 120.831802,75.832779 122.307503,73.981583 
	C123.989067,76.061462 125.415237,77.825455 127.025620,79.817291 
	C126.365936,80.800659 125.564880,81.994774 124.383911,83.755203 
	C122.653236,82.402718 121.156960,81.233414 119.343124,79.639420 
	C119.026871,78.841034 119.028183,78.467354 119.029495,78.093666 
z" />
  <path fill="#121212" opacity="1.000000" stroke="none" d="
M118.670296,78.055740 
	C119.028183,78.467354 119.026871,78.841034 119.015579,79.494812 
	C117.952217,80.773705 116.898834,81.772499 115.812225,82.802803 
	C109.968315,79.906776 109.756294,79.217209 113.617683,74.667778 
	C115.171288,75.776695 116.741196,76.897255 118.670296,78.055740 
z" />
  <path fill="#161616" opacity="1.000000" stroke="none" d="
M106.180084,136.692871 
	C104.905380,135.423248 103.723862,134.570145 102.804688,133.493149 
	C101.831528,132.352890 101.107910,130.999664 99.568504,128.669678 
	C105.293304,130.434860 108.880257,135.035141 107.409431,139.754410 
	C107.069168,138.839920 106.728912,137.925430 106.180084,136.692871 
z" />
  <path fill="#F9F9F9" opacity="1.000000" stroke="none" d="
M84.152992,105.977509 
	C82.564903,102.137115 81.054260,98.687035 79.549095,95.249458 
	C80.193626,95.040596 81.069855,94.756645 82.534515,94.282013 
	C80.057693,91.501823 77.915970,89.097771 75.774246,86.693718 
	C75.257751,86.860909 74.741257,87.028091 74.224762,87.195282 
	C74.498520,89.637535 74.295967,92.261490 75.144058,94.484650 
	C76.975410,99.285385 79.606873,103.786713 81.341034,108.615242 
	C81.879936,110.115723 81.208862,113.115433 80.025940,113.994316 
	C73.109688,119.132973 66.171524,124.507393 56.786922,124.180969 
	C56.259323,124.162621 55.749065,125.171570 55.145454,125.574692 
	C49.691406,129.217270 43.753464,129.549423 37.645153,127.826706 
	C32.107422,126.264915 28.415945,122.895988 27.347822,116.918373 
	C26.605097,112.761818 27.134674,109.036049 31.005720,106.953789 
	C37.094635,103.678497 43.395336,100.785820 49.679008,97.888710 
	C52.534016,96.572403 55.662514,95.841133 58.494385,94.484314 
	C67.129036,90.347221 69.173782,84.281746 64.801636,75.752190 
	C63.610592,73.428612 61.874741,71.384300 59.959167,68.583443 
	C61.347054,69.127579 62.437725,69.271683 63.132092,69.873245 
	C67.779739,73.899719 72.323959,78.045235 76.940964,82.107552 
	C79.561363,84.413132 81.913254,87.589622 84.989120,88.693451 
	C91.293549,90.955879 91.334084,95.605347 91.758690,100.904770 
	C92.600815,111.415306 92.580208,121.135880 81.948692,127.599014 
	C78.888550,129.459351 77.194351,133.500320 74.711662,136.402725 
	C73.317047,138.033096 71.821892,139.885284 69.960083,140.736557 
	C67.111160,142.039185 63.262886,144.016632 61.026070,143.026245 
	C58.587738,141.946594 57.503437,137.808899 56.265457,135.735519 
	C64.490402,130.293625 71.849007,125.844688 78.715370,120.734360 
	C83.293251,117.327248 86.086456,112.570114 84.152992,105.977509 
M61.730721,109.252731 
	C60.421192,107.320671 59.111664,105.388618 57.661110,103.248489 
	C54.619419,105.824471 53.257191,107.544312 56.198887,110.122360 
	C58.182499,111.860748 59.755997,113.253380 61.730721,109.252731 
z" />
  <path fill="#F9F9F9" opacity="1.000000" stroke="none" d="
M10.748539,93.123314 
	C11.138695,92.658203 11.528852,92.193092 11.973175,91.416260 
	C22.827011,82.429016 33.581184,73.695183 44.501873,65.174767 
	C45.512627,64.386169 48.250259,64.249748 49.050171,65.008308 
	C53.840298,69.550781 58.703999,74.127220 62.748455,79.312088 
	C66.547783,84.182693 65.593956,86.171890 59.611412,88.248177 
	C54.924656,89.874741 50.124069,91.170097 45.399784,92.692459 
	C36.514179,95.555740 28.828465,100.192627 22.884472,107.589035 
	C21.364771,109.480095 19.355902,111.452858 17.168213,112.189346 
	C15.250860,112.834816 12.767488,111.798958 10.159912,110.896103 
	C6.498259,104.856796 9.631543,99.487686 9.938321,94.091934 
	C9.938321,94.091934 9.981346,94.014214 10.040863,93.787415 
	C10.253997,93.322174 10.470050,93.176414 10.748539,93.123314 
M47.886986,78.504173 
	C44.499512,82.935165 43.382729,76.338684 40.715057,77.106277 
	C37.576336,81.543343 37.809410,82.268463 43.852558,85.300232 
	C44.542343,84.214943 45.332741,82.971359 46.133854,81.710907 
	C48.243164,83.319580 49.805965,84.511444 52.209953,86.344849 
	C52.863670,84.235649 54.308212,81.852142 53.696541,81.063568 
	C52.506538,79.529411 50.163490,78.889626 47.886986,78.504173 
z" />
  <path fill="#EBEBEB" opacity="1.000000" stroke="none" d="
M113.766983,107.038414 
	C113.130608,105.292618 112.269821,103.861557 112.341919,102.479141 
	C112.433739,100.718605 113.280418,98.997429 113.801682,97.259285 
	C115.843552,98.008324 118.428627,98.246964 119.759850,99.663734 
	C120.876602,100.852257 121.456100,104.364372 120.634071,105.165482 
	C119.071564,106.688210 117.552223,111.174568 113.766983,107.038414 
z" />
  <path fill="#303030" opacity="1.000000" stroke="none" d="
M9.704780,94.353752 
	C9.631543,99.487686 6.498259,104.856796 9.868820,110.654861 
	C9.657818,111.280991 9.363679,111.538689 8.933487,112.062935 
	C5.157412,106.943253 5.428596,99.814003 9.704780,94.353752 
z" />
  <path fill="#F9F9F9" opacity="1.000000" stroke="none" d="
M9.856905,89.729950 
	C9.546963,89.874184 9.337656,89.696693 9.093412,89.268814 
	C9.306147,89.209694 9.605835,89.339630 9.856905,89.729950 
z" />
  <path fill="#1A1A1A" opacity="1.000000" stroke="none" d="
M8.806486,60.184097 
	C5.395195,56.075855 5.482436,51.980015 8.832120,47.889389 
	C9.253837,51.166954 8.270734,55.437405 15.361487,54.361313 
	C12.606987,56.954998 10.903269,58.559250 8.806486,60.184097 
z" />
  <path fill="#1A1A1A" opacity="1.000000" stroke="none" d="
M14.506495,52.506737 
	C14.487129,52.506813 14.525859,52.506664 14.506495,52.506737 
z" />
  <path fill="#303030" opacity="1.000000" stroke="none" d="
M10.732819,93.329178 
	C10.470050,93.176414 10.253997,93.322174 10.074562,93.758484 
	C10.347786,93.937263 10.570571,93.796829 10.732819,93.329178 
z" />
  <path fill="#121212" opacity="1.000000" stroke="none" d="
M61.523422,109.563347 
	C59.755997,113.253380 58.182499,111.860748 56.198887,110.122360 
	C53.257191,107.544312 54.619419,105.824471 57.661110,103.248489 
	C59.111664,105.388618 60.421192,107.320671 61.523422,109.563347 
z" />
  <path fill="#111111" opacity="1.000000" stroke="none" d="
M48.092518,78.191772 
	C50.163490,78.889626 52.506538,79.529411 53.696541,81.063568 
	C54.308212,81.852142 52.863670,84.235649 52.209953,86.344849 
	C49.805965,84.511444 48.243164,83.319580 46.133854,81.710907 
	C45.332741,82.971359 44.542343,84.214943 43.852558,85.300232 
	C37.809410,82.268463 37.576336,81.543343 40.715057,77.106277 
	C43.382729,76.338684 44.499512,82.935165 48.092518,78.191772 
z" />
</svg>